<?xml version="1.0" standalone="no"?>
<!DOCTYPE svg PUBLIC "-//W3C//DTD SVG 20010904//EN"
 "http://www.w3.org/TR/2001/REC-SVG-20010904/DTD/svg10.dtd">
<svg version="1.0" xmlns="http://www.w3.org/2000/svg"
 width="600.000000pt" height="431.000000pt" viewBox="0 0 600.000000 431.000000"
 preserveAspectRatio="xMidYMid meet">

<g transform="translate(0.000000,431.000000) scale(0.100000,-0.100000)"
fill="#000000" stroke="none">
<path d="M2890 4164 c-14 -2 -69 -11 -123 -20 -660 -105 -1240 -541 -1508
-1136 -92 -203 -140 -383 -166 -616 -38 -345 30 -712 191 -1037 308 -622 899
-1027 1608 -1104 428 -47 903 62 1274 292 117 73 191 128 307 232 116 103 161
157 152 185 -12 39 -47 23 -125 -56 -287 -291 -652 -482 -1070 -561 -122 -22
-524 -25 -640 -4 -342 61 -626 182 -880 372 -109 82 -290 262 -367 364 -165
219 -287 485 -343 745 -67 307 -49 656 49 955 156 480 499 878 951 1104 144
73 217 102 350 140 487 138 987 90 1444 -140 123 -62 159 -69 164 -33 4 29
-18 45 -144 108 -179 90 -379 155 -589 192 -77 14 -483 28 -535 18z"/>
<path d="M2965 3714 c-333 -36 -649 -174 -879 -384 -121 -111 -158 -157 -146
-181 19 -34 50 -22 107 41 156 172 407 324 650 395 201 58 503 71 693 30 577
-125 1004 -546 1121 -1108 27 -131 30 -359 6 -493 -75 -412 -328 -766 -703
-979 -188 -108 -464 -184 -664 -185 -58 0 -80 -12 -80 -42 0 -33 32 -39 155
-28 216 19 374 64 570 161 438 217 745 645 805 1123 16 122 8 352 -15 461 -61
291 -192 534 -404 745 -221 221 -481 359 -789 421 -95 19 -342 32 -427 23z"/>
<path d="M4941 3681 c-13 -3 -34 -19 -45 -34 -20 -27 -21 -43 -24 -323 -3
-232 0 -315 12 -393 30 -189 83 -303 161 -346 31 -17 41 -29 48 -61 14 -65 0
-446 -32 -858 -17 -214 -31 -435 -31 -491 0 -98 1 -105 27 -136 36 -42 79 -59
154 -59 75 0 156 38 166 78 9 36 -3 247 -32 568 -36 405 -49 696 -35 807 13
108 20 123 68 142 52 22 81 52 107 110 40 90 46 146 50 519 5 366 1 421 -32
459 -30 33 -85 20 -111 -27 -14 -26 -17 -68 -20 -286 -1 -140 -5 -265 -7 -277
-4 -17 -12 -23 -33 -23 -51 0 -52 3 -52 300 0 237 -2 279 -16 298 -22 31 -53
41 -88 29 -51 -18 -56 -47 -56 -351 0 -240 -2 -275 -16 -280 -8 -3 -24 -1 -35
4 -18 10 -19 24 -19 295 0 280 0 284 -22 309 -26 28 -53 37 -87 27z m283 -47
c14 -13 16 -54 16 -298 l0 -283 24 -22 c34 -32 88 -32 121 -1 l25 23 0 251 c0
253 8 322 36 333 9 3 23 -2 32 -11 15 -15 17 -51 17 -334 0 -174 -3 -357 -7
-407 -12 -163 -50 -239 -135 -276 -33 -14 -48 -28 -59 -55 -43 -103 -39 -350
16 -990 17 -191 30 -381 30 -424 l0 -76 -39 -22 c-68 -38 -194 -23 -220 26
-18 33 -13 183 20 587 16 209 32 486 35 615 6 274 0 314 -54 342 -73 36 -106
92 -145 247 -20 80 -22 109 -22 417 0 266 3 334 14 347 17 22 67 22 75 1 3 -9
6 -143 6 -298 0 -269 1 -284 20 -301 23 -21 94 -25 112 -7 10 10 14 87 18 308
5 278 6 296 24 310 24 17 21 17 40 -2z"/>
<path d="M565 3566 c-108 -27 -189 -87 -230 -169 -62 -127 -34 -544 56 -823
32 -100 73 -165 118 -188 19 -10 32 -27 38 -48 15 -61 4 -402 -27 -821 -32
-450 -37 -618 -17 -656 41 -80 235 -83 317 -5 20 20 16 162 -14 509 -40 451
-49 605 -44 788 3 138 7 178 21 205 10 17 24 32 31 32 25 0 76 51 101 101 61
119 95 339 95 609 0 184 -9 259 -40 320 -62 122 -242 186 -405 146z m256 -62
c68 -31 90 -53 121 -119 20 -45 23 -68 26 -237 8 -405 -62 -694 -174 -722 -18
-5 -32 -21 -47 -54 -19 -41 -22 -69 -25 -227 -4 -187 3 -312 43 -775 22 -253
30 -393 26 -462 -1 -19 -11 -32 -38 -48 -32 -19 -49 -21 -111 -18 -103 5 -112
17 -112 152 0 55 14 288 30 516 17 228 32 503 33 610 2 224 -6 271 -53 295
-45 23 -79 76 -111 171 -79 236 -113 663 -63 782 30 74 122 142 218 162 67 14
173 3 237 -26z"/>
<path d="M663 3393 c-33 -13 -5 -43 39 -43 89 0 165 -183 155 -375 -6 -118
-25 -185 -70 -252 -26 -39 -41 -51 -79 -63 -27 -8 -48 -20 -48 -27 0 -38 68
-24 122 25 71 65 106 158 115 307 6 109 -4 179 -37 269 -41 107 -136 184 -197
159z"/>
</g>
</svg>
